<?xml version="1.0" encoding="UTF-8" standalone="no"?>
<svg width="23px" height="22px" viewBox="0 0 23 22" version="1.1" xmlns="http://www.w3.org/2000/svg" xmlns:xlink="http://www.w3.org/1999/xlink" xmlns:sketch="http://www.bohemiancoding.com/sketch/ns">
    <!-- Generator: Sketch 3.3.3 (12081) - http://www.bohemiancoding.com/sketch -->
    <title>Imported Layers</title>
    <desc>Created with Sketch.</desc>
    <defs></defs>
    <g id="Welcome" stroke="none" stroke-width="1" fill="none" fill-rule="evenodd" sketch:type="MSPage">
        <g id="IKONIT-&amp;-Napit" sketch:type="MSArtboardGroup" transform="translate(-326.000000, -2979.000000)" fill="#484639">
            <g id="Imported-Layers" sketch:type="MSLayerGroup" transform="translate(326.072222, 2979.000000)">
                <path d="M21.1734011,1.38753916 C20.361317,0.570689635 19.281932,0.121 18.1347468,0.121 L5.02703046,0.121 C2.66161099,0.121 0.737,2.04539437 0.737,4.41081384 L0.737,20.7601513 C0.737,20.9293265 0.835559145,21.0831221 0.989354733,21.1537381 C1.04740715,21.1803815 1.10892539,21.1933783 1.17022701,21.1933783 C1.27181874,21.1933783 1.37254402,21.1576371 1.45247441,21.088754 L6.78463243,16.5086781 L18.1230497,16.5086781 C20.4884692,16.5086781 22.4128635,14.5840671 22.4128635,12.2186476 L22.4128635,4.40128285 C22.4191453,3.26796099 21.9789867,2.19767367 21.1734011,1.38753916 L21.1734011,1.38753916 Z M21.5461929,12.2186476 C21.5461929,14.1064343 20.0106198,15.642224 18.1230497,15.642224 L6.62412182,15.642224 C6.52036395,15.642224 6.42050513,15.679265 6.34187443,15.7466318 L1.60345402,19.8167995 L1.60345402,4.41081384 C1.60345402,2.52302715 3.13924376,0.987454018 5.02703046,0.987454018 L18.1347468,0.987454018 C19.0497223,0.987454018 19.910761,1.34659921 20.5590852,1.99838924 C21.2006944,2.64368087 21.5513916,3.49540517 21.5461929,4.39911671 L21.5461929,12.2186476 L21.5461929,12.2186476 Z" id="Fill-1" sketch:type="MSShapeGroup"></path>
                <path d="M6.57018506,9.44209571 C5.95067044,9.44209571 5.44834372,9.94442243 5.44834372,10.563937 C5.44834372,11.1834517 5.95067044,11.6857784 6.57018506,11.6857784 C7.18969968,11.6857784 7.6920264,11.1834517 7.6920264,10.563937 C7.6920264,9.94442243 7.18969968,9.44209571 6.57018506,9.44209571" id="Fill-2" sketch:type="MSShapeGroup"></path>
                <path d="M11.4528701,9.44209571 C10.8333554,9.44209571 10.3310287,9.94442243 10.3310287,10.563937 C10.3310287,11.1834517 10.8333554,11.6857784 11.4528701,11.6857784 C12.0723847,11.6857784 12.5744948,11.1834517 12.5744948,10.563937 C12.5744948,9.94442243 12.0723847,9.44209571 11.4528701,9.44209571" id="Fill-3" sketch:type="MSShapeGroup"></path>
                <path d="M16.3353385,9.44209571 C15.7158238,9.44209571 15.2137137,9.94442243 15.2137137,10.563937 C15.2137137,11.1834517 15.7158238,11.6857784 16.3353385,11.6857784 C16.9550697,11.6857784 17.4571798,11.1834517 17.4571798,10.563937 C17.4571798,9.94442243 16.9550697,9.44209571 16.3353385,9.44209571" id="Fill-4" sketch:type="MSShapeGroup"></path>
            </g>
        </g>
    </g>
</svg>