<?xml version="1.0" encoding="UTF-8" standalone="no"?>
<svg width="26px" height="19px" viewBox="0 0 26 19" version="1.1" xmlns="http://www.w3.org/2000/svg" xmlns:xlink="http://www.w3.org/1999/xlink" xmlns:sketch="http://www.bohemiancoding.com/sketch/ns">
    <!-- Generator: Sketch 3.3.3 (12081) - http://www.bohemiancoding.com/sketch -->
    <title>Imported Layers</title>
    <desc>Created with Sketch.</desc>
    <defs></defs>
    <g id="Welcome" stroke="none" stroke-width="1" fill="none" fill-rule="evenodd" sketch:type="MSPage">
        <g id="IKONIT-&amp;-Napit" sketch:type="MSArtboardGroup" transform="translate(-323.000000, -2838.000000)" fill="#484639">
            <path d="M348.419471,2855.4705 C348.181126,2853.02478 347.066882,2850.90058 345.407549,2849.67613 C345.973326,2848.98538 346.313849,2848.10314 346.313849,2847.1428 C346.313849,2844.93479 344.517293,2843.13844 342.309282,2843.13844 C340.101271,2843.13844 338.305137,2844.93479 338.305137,2847.1428 C338.305137,2847.42442 338.335115,2847.69929 338.390637,2847.96466 C337.650482,2847.17552 336.810049,2846.53564 335.895937,2846.06613 C336.417804,2845.22992 336.726237,2844.20709 336.726237,2843.10234 C336.726237,2840.28887 334.731871,2838 332.280449,2838 C329.829237,2838 327.835082,2840.28887 327.835082,2843.10234 C327.835082,2844.20878 328.14436,2845.23309 328.667704,2846.07014 C325.624326,2847.63384 323.491471,2851.03801 323.08086,2855.03413 C323.032937,2855.50006 323.185993,2855.96703 323.500971,2856.316 C323.818271,2856.66771 324.271526,2856.86932 324.744837,2856.86932 L347.193126,2856.86932 C347.532593,2856.86932 347.860237,2856.7226 348.092671,2856.46631 C348.335871,2856.1982 348.455149,2855.83509 348.419471,2855.4705 L348.419471,2855.4705 Z M342.309282,2843.98289 C344.051793,2843.98289 345.469404,2845.4005 345.469404,2847.1428 C345.469404,2848.88531 344.051793,2850.30271 342.309282,2850.30271 C340.566982,2850.30271 339.149582,2848.88531 339.149582,2847.1428 C339.149582,2845.4005 340.566982,2843.98289 342.309282,2843.98289 L342.309282,2843.98289 Z M332.280449,2838.84444 C334.266371,2838.84444 335.881793,2840.75458 335.881793,2843.10234 C335.881793,2845.45011 334.266371,2847.36024 332.280449,2847.36024 C330.294949,2847.36024 328.679526,2845.45011 328.679526,2843.10234 C328.679526,2840.75458 330.294949,2838.84444 332.280449,2838.84444 L332.280449,2838.84444 Z M324.12776,2855.75022 C323.970482,2855.57606 323.897226,2855.35228 323.920871,2855.12069 C324.30826,2851.35046 326.320993,2848.15656 329.180282,2846.75436 C329.981871,2847.65073 331.075637,2848.20469 332.280449,2848.20469 C333.486315,2848.20469 334.580926,2847.6501 335.382515,2846.75246 C336.750937,2847.42337 337.947304,2848.51967 338.869437,2849.94952 C337.40306,2851.20648 336.419071,2853.2171 336.199515,2855.4705 C336.180937,2855.66029 336.205215,2855.84923 336.266015,2856.02488 L324.744837,2856.02488 C324.510293,2856.02488 324.28546,2855.92481 324.12776,2855.75022 L324.12776,2855.75022 Z M347.46736,2855.89884 C347.393471,2855.98012 347.296149,2856.02488 347.193126,2856.02488 L337.42586,2856.02488 C337.322626,2856.02488 337.225304,2855.98012 337.151626,2855.89884 C337.068026,2855.80701 337.027493,2855.68056 337.039949,2855.55262 C337.258449,2853.30872 338.297537,2851.34412 339.823237,2850.27611 C340.506815,2850.81972 341.370049,2851.14716 342.309282,2851.14716 C343.248937,2851.14716 344.11196,2850.81972 344.795749,2850.27611 C346.30456,2851.33504 347.361804,2853.32392 347.579037,2855.55262 C347.591493,2855.68056 347.55096,2855.80701 347.46736,2855.89884 L347.46736,2855.89884 Z" id="Imported-Layers" sketch:type="MSShapeGroup"></path>
        </g>
    </g>
</svg>