<?xml version="1.0" encoding="UTF-8" standalone="no"?>
<svg width="23px" height="18px" viewBox="0 0 23 18" version="1.1" xmlns="http://www.w3.org/2000/svg" xmlns:xlink="http://www.w3.org/1999/xlink" xmlns:sketch="http://www.bohemiancoding.com/sketch/ns">
    <!-- Generator: Sketch 3.3.3 (12081) - http://www.bohemiancoding.com/sketch -->
    <title>Imported Layers</title>
    <desc>Created with Sketch.</desc>
    <defs></defs>
    <g id="Welcome" stroke="none" stroke-width="1" fill="none" fill-rule="evenodd" sketch:type="MSPage">
        <g id="IKONIT-&amp;-Napit" sketch:type="MSArtboardGroup" transform="translate(-666.000000, -2768.000000)" fill="#484639">
            <path d="M687.909533,2784.49305 L686.323009,2784.49305 L686.323009,2775.0989 C686.323009,2774.91301 686.172449,2774.76245 685.986561,2774.76245 L684.821776,2774.76245 L684.821776,2770.93131 C685.281364,2770.78781 685.615626,2770.35834 685.615626,2769.85232 C685.615626,2768.64632 684.612168,2768.04794 684.569271,2768.02288 C684.516953,2767.99226 684.452187,2767.99243 684.399869,2768.02305 C684.357308,2768.04811 683.355364,2768.6475 683.355364,2769.85232 C683.355364,2770.35834 683.689626,2770.78765 684.148879,2770.93131 L684.148879,2774.76245 L680.025869,2774.76245 L680.025869,2772.66385 C680.485121,2772.52019 680.819383,2772.09088 680.819383,2771.58469 C680.819383,2770.37886 679.815925,2769.78032 679.773196,2769.75542 C679.72071,2769.72464 679.655944,2769.72497 679.603626,2769.75559 C679.561065,2769.78049 678.559121,2770.38004 678.559121,2771.58469 C678.559121,2772.09088 678.893383,2772.52036 679.352804,2772.66385 L679.352804,2774.76245 L675.229626,2774.76245 L675.229626,2770.93131 C675.688879,2770.78765 676.023308,2770.35834 676.023308,2769.85232 C676.023308,2768.64632 675.020019,2768.04794 674.97729,2768.02288 C674.924299,2767.99226 674.859869,2767.99243 674.807551,2768.02305 C674.764991,2768.04811 673.762879,2768.6475 673.762879,2769.85232 C673.762879,2770.35834 674.097308,2770.78781 674.556729,2770.93131 L674.556729,2774.76245 L670.433383,2774.76245 L670.433383,2772.66385 C670.892804,2772.52036 671.227234,2772.09088 671.227234,2771.58469 C671.227234,2770.37886 670.223776,2769.78032 670.180879,2769.75542 C670.128393,2769.72464 670.063626,2769.72497 670.011308,2769.75559 C669.968748,2769.78049 668.966804,2770.38004 668.966804,2771.58469 C668.966804,2772.09088 669.301234,2772.52019 669.760486,2772.66385 L669.760486,2774.76245 L668.595701,2774.76245 C668.409981,2774.76245 668.259252,2774.91301 668.259252,2775.0989 L668.259252,2784.49305 L666.672897,2784.49305 C666.30129,2784.49305 666,2784.79434 666,2785.16594 C666,2785.53755 666.30129,2785.83884 666.672897,2785.83884 L687.909533,2785.83884 C688.28114,2785.83884 688.58243,2785.53755 688.58243,2785.16594 C688.58243,2784.79434 688.28114,2784.49305 687.909533,2784.49305 L687.909533,2784.49305 Z M683.691645,2769.85232 C683.691645,2769.0223 684.262766,2768.53024 684.48415,2768.3706 C684.704355,2768.53058 685.279178,2769.02768 685.279178,2769.85232 C685.279178,2770.29004 684.923047,2770.646 684.485327,2770.646 C684.047776,2770.646 683.691645,2770.29004 683.691645,2769.85232 L683.691645,2769.85232 Z M678.89557,2771.58469 C678.89557,2770.75467 679.466523,2770.26279 679.688075,2770.10297 C679.908112,2770.26312 680.482935,2770.76022 680.482935,2771.58469 C680.482935,2772.02241 680.126972,2772.37854 679.689421,2772.37854 C679.251701,2772.37854 678.89557,2772.02241 678.89557,2771.58469 L678.89557,2771.58469 Z M674.099327,2769.85232 C674.099327,2769.02163 674.67129,2768.5294 674.892673,2768.37009 C675.114393,2768.5294 675.68686,2769.02112 675.68686,2769.85232 C675.68686,2770.29004 675.330729,2770.646 674.893178,2770.646 C674.455458,2770.646 674.099327,2770.29004 674.099327,2769.85232 L674.099327,2769.85232 Z M669.303252,2771.58469 C669.303252,2770.75417 669.875215,2770.26194 670.09643,2770.10264 C670.318318,2770.26194 670.890785,2770.75366 670.890785,2771.58469 C670.890785,2772.02241 670.534654,2772.37854 670.096935,2772.37854 C669.659215,2772.37854 669.303252,2772.02241 669.303252,2771.58469 L669.303252,2771.58469 Z M685.650112,2775.43535 L685.650112,2779.86368 C685.140561,2779.76695 684.832879,2779.45456 684.489533,2779.09826 C684.035495,2778.62707 683.520729,2778.09329 682.508019,2778.09329 C681.495477,2778.09329 680.98071,2778.62707 680.526505,2779.09826 C680.113178,2779.52723 679.756206,2779.8975 679.029645,2779.8975 C678.302916,2779.8975 677.946112,2779.52723 677.532785,2779.09826 C677.078748,2778.62707 676.563981,2778.09329 675.551607,2778.09329 C674.539065,2778.09329 674.024467,2778.62707 673.57043,2779.09826 C673.157271,2779.52723 672.800299,2779.8975 672.073738,2779.8975 C671.347346,2779.8975 670.990374,2779.52723 670.577215,2779.09826 C670.176505,2778.68258 669.728019,2778.21845 668.93215,2778.11499 L668.93215,2775.43535 L685.650112,2775.43535 L685.650112,2775.43535 Z M668.93215,2778.79983 C669.441701,2778.89673 669.749215,2779.20912 670.092561,2779.56525 C670.546598,2780.03645 671.061196,2780.57039 672.073738,2780.57039 C673.08628,2780.57039 673.600879,2780.03645 674.055084,2779.56525 C674.468243,2779.13645 674.825215,2778.76602 675.551607,2778.76602 C676.278,2778.76602 676.634972,2779.13645 677.048131,2779.56525 C677.502336,2780.03628 678.016935,2780.57039 679.029645,2780.57039 C680.042187,2780.57039 680.556953,2780.03645 681.010991,2779.56525 C681.424486,2779.13645 681.781458,2778.76602 682.508019,2778.76602 C683.234748,2778.76602 683.59172,2779.13645 684.005215,2779.56525 C684.405925,2779.9811 684.854411,2780.44523 685.650112,2780.54869 L685.650112,2784.49305 L668.93215,2784.49305 L668.93215,2778.79983 L668.93215,2778.79983 Z" id="Imported-Layers" sketch:type="MSShapeGroup"></path>
        </g>
    </g>
</svg>