<?xml version="1.0" encoding="UTF-8" standalone="no"?>
<svg width="17px" height="24px" viewBox="0 0 17 24" version="1.1" xmlns="http://www.w3.org/2000/svg" xmlns:xlink="http://www.w3.org/1999/xlink" xmlns:sketch="http://www.bohemiancoding.com/sketch/ns">
    <!-- Generator: Sketch 3.3.3 (12081) - http://www.bohemiancoding.com/sketch -->
    <title>paikka ikoni</title>
    <desc>Created with Sketch.</desc>
    <defs></defs>
    <g id="Welcome" stroke="none" stroke-width="1" fill="none" fill-rule="evenodd" sketch:type="MSPage">
        <g id="IKONIT-&amp;-Napit" sketch:type="MSArtboardGroup" transform="translate(-1031.000000, -2089.000000)" fill="#FFFFFF">
            <path d="M1039.14309,2112.76177 L1038.51313,2111.97074 C1038.29117,2111.69192 1033.06545,2105.09305 1031.46711,2099.86346 C1031.19152,2099.08548 1031.03672,2098.26883 1031.00693,2097.43608 C1031.00306,2097.34089 1031,2097.24102 1031,2097.14277 C1031,2092.65283 1034.65299,2089 1039.14309,2089 C1041.31823,2089 1043.36306,2089.84709 1044.90099,2091.38502 C1046.43909,2092.92311 1047.28617,2094.96779 1047.28601,2097.14277 C1047.28601,2097.24295 1047.28328,2097.34443 1047.27828,2097.44719 C1047.24929,2098.27012 1047.0945,2099.08693 1046.81874,2099.86443 C1045.22024,2105.09385 1039.99501,2111.69192 1039.77305,2111.97074 L1039.14309,2112.76177 L1039.14309,2112.76177 Z M1039.14309,2090.61074 C1035.54115,2090.61074 1032.61074,2093.54099 1032.61074,2097.14277 C1032.61074,2097.21863 1032.61315,2097.29546 1032.61638,2097.37326 C1032.64086,2098.05267 1032.7665,2098.71259 1032.99055,2099.3403 L1033.00247,2099.37654 C1034.19007,2103.28016 1037.70003,2108.21611 1039.14309,2110.14384 C1040.58599,2108.21627 1044.09562,2103.28081 1045.28338,2099.37718 L1045.29546,2099.34046 C1045.51952,2098.71388 1045.64515,2098.0538 1045.66899,2097.3789 C1045.67318,2097.29192 1045.67528,2097.21686 1045.67528,2097.14277 C1045.67528,2095.39801 1044.99587,2093.7578 1043.7622,2092.52397 C1042.52838,2091.29031 1040.888,2090.61074 1039.14309,2090.61074 L1039.14309,2090.61074 Z M1039.14309,2101.54201 C1036.71732,2101.54201 1034.74384,2099.56854 1034.74384,2097.14277 C1034.74384,2094.71732 1036.71732,2092.744 1039.14309,2092.744 C1041.56886,2092.744 1043.54234,2094.71732 1043.54234,2097.14277 C1043.54234,2099.56854 1041.56886,2101.54201 1039.14309,2101.54201 L1039.14309,2101.54201 Z M1039.14309,2094.35474 C1037.60548,2094.35474 1036.35458,2095.60532 1036.35458,2097.14277 C1036.35458,2098.68038 1037.60548,2099.93128 1039.14309,2099.93128 C1040.6807,2099.93128 1041.93144,2098.68038 1041.93144,2097.14277 C1041.93144,2095.60532 1040.6807,2094.35474 1039.14309,2094.35474 L1039.14309,2094.35474 Z" id="paikka-ikoni" sketch:type="MSShapeGroup"></path>
        </g>
    </g>
</svg>