<?xml version="1.0" encoding="UTF-8" standalone="no"?>
<svg width="21px" height="23px" viewBox="0 0 21 23" version="1.1" xmlns="http://www.w3.org/2000/svg" xmlns:xlink="http://www.w3.org/1999/xlink" xmlns:sketch="http://www.bohemiancoding.com/sketch/ns">
    <!-- Generator: Sketch 3.3.3 (12081) - http://www.bohemiancoding.com/sketch -->
    <title>Imported Layers</title>
    <desc>Created with Sketch.</desc>
    <defs></defs>
    <g id="Welcome" stroke="none" stroke-width="1" fill="none" fill-rule="evenodd" sketch:type="MSPage">
        <g id="IKONIT-&amp;-Napit" sketch:type="MSArtboardGroup" transform="translate(-325.000000, -2765.000000)" fill="#7B7983">
            <path d="M345.412816,2785.84793 C345.019418,2781.81244 343.151834,2778.32274 340.379763,2776.38107 C341.365601,2775.26417 341.965545,2773.79936 341.965545,2772.196 C341.965545,2768.70442 339.125016,2765.86389 335.633435,2765.86389 C332.142088,2765.86389 329.301559,2768.70442 329.301559,2772.196 C329.301559,2773.79983 329.901971,2775.26535 330.888279,2776.38224 C328.123007,2778.32461 326.243935,2781.84761 325.854288,2785.84793 C325.802007,2786.38294 325.976434,2786.91442 326.332555,2787.30712 C326.670858,2787.67988 327.147249,2787.8937 327.640286,2787.8937 L343.626584,2787.8937 C344.11962,2787.8937 344.596246,2787.67988 344.934549,2787.30688 C345.29067,2786.91442 345.465097,2786.3827 345.412816,2785.84793 L345.412816,2785.84793 Z M335.633435,2766.80167 C338.608066,2766.80167 341.027767,2769.2216 341.027767,2772.196 C341.027767,2775.17063 338.608066,2777.59057 335.633435,2777.59057 C332.659038,2777.59057 330.239337,2775.17063 330.239337,2772.196 C330.239337,2769.2216 332.659038,2766.80167 335.633435,2766.80167 L335.633435,2766.80167 Z M344.240125,2786.67693 C344.076717,2786.85675 343.858918,2786.95592 343.626584,2786.95592 L327.640286,2786.95592 C327.407951,2786.95592 327.190387,2786.85675 327.027214,2786.67693 C326.848333,2786.48 326.761119,2786.21085 326.787377,2785.93913 C327.156393,2782.15239 328.932544,2778.83593 331.539097,2777.06775 L331.461261,2776.95335 C332.576514,2777.93262 334.036399,2778.52834 335.633435,2778.52834 C337.177486,2778.52834 338.59353,2777.97224 339.693544,2777.05064 C342.323776,2778.81249 344.105319,2782.10268 344.479727,2785.93913 C344.505985,2786.21085 344.418771,2786.48 344.240125,2786.67693 L344.240125,2786.67693 Z" id="Imported-Layers" sketch:type="MSShapeGroup"></path>
        </g>
    </g>
</svg>