<?xml version="1.0" encoding="UTF-8" standalone="no"?>
<svg width="24px" height="14px" viewBox="0 0 24 14" version="1.1" xmlns="http://www.w3.org/2000/svg" xmlns:xlink="http://www.w3.org/1999/xlink" xmlns:sketch="http://www.bohemiancoding.com/sketch/ns">
    <!-- Generator: Sketch 3.3.3 (12081) - http://www.bohemiancoding.com/sketch -->
    <title>Imported Layers</title>
    <desc>Created with Sketch.</desc>
    <defs></defs>
    <g id="Welcome" stroke="none" stroke-width="1" fill="none" fill-rule="evenodd" sketch:type="MSPage">
        <g id="IKONIT-&amp;-Napit" sketch:type="MSArtboardGroup" transform="translate(-326.000000, -2912.000000)" fill="#484639">
            <path d="M349.237421,2912 L326.368605,2912 C326.165053,2912 326,2912.16505 326,2912.36842 L326,2925.45621 C326,2925.65976 326.165053,2925.82463 326.368605,2925.82463 L349.237421,2925.82463 C349.440974,2925.82463 349.605842,2925.65976 349.605842,2925.45621 L349.605842,2912.36842 C349.605842,2912.16505 349.440974,2912 349.237421,2912 L349.237421,2912 Z M337.807342,2920.17637 L327.507763,2912.73684 L348.098816,2912.73684 L337.807342,2920.17637 L337.807342,2920.17637 Z M334.699158,2918.84029 L326.737026,2924.59576 L326.737026,2913.08905 L334.699158,2918.84029 L334.699158,2918.84029 Z M335.328237,2919.29474 L337.591632,2920.92961 C337.656105,2920.97621 337.731632,2920.99942 337.807342,2920.99942 C337.883053,2920.99942 337.958947,2920.97621 338.023237,2920.92961 L340.277974,2919.29971 L348.291316,2925.08779 L327.314342,2925.08779 L335.328237,2919.29474 L335.328237,2919.29474 Z M340.906868,2918.84508 L348.869,2913.08942 L348.869,2924.59632 L340.906868,2918.84508 L340.906868,2918.84508 Z" id="Imported-Layers" sketch:type="MSShapeGroup"></path>
        </g>
    </g>
</svg>