<?xml version="1.0" encoding="UTF-8" standalone="no"?>
<svg width="22px" height="22px" viewBox="0 0 22 22" version="1.1" xmlns="http://www.w3.org/2000/svg" xmlns:xlink="http://www.w3.org/1999/xlink" xmlns:sketch="http://www.bohemiancoding.com/sketch/ns">
    <!-- Generator: Sketch 3.3.3 (12081) - http://www.bohemiancoding.com/sketch -->
    <title>Imported Layers</title>
    <desc>Created with Sketch.</desc>
    <defs></defs>
    <g id="Welcome" stroke="none" stroke-width="1" fill="none" fill-rule="evenodd" sketch:type="MSPage">
        <g id="IKONIT-&amp;-Napit" sketch:type="MSArtboardGroup" transform="translate(-666.000000, -2907.000000)" fill="#484639">
            <g id="Imported-Layers" sketch:type="MSLayerGroup" transform="translate(665.954545, 2907.000000)">
                <path d="M16.008129,15.852879 C21.211879,10.649129 23.4632823,4.74814516 21.1337903,2.41865323 L19.8157419,1.10060484 C19.1433629,0.428225806 18.0490081,0.428225806 17.376629,1.10060484 L14.0887419,4.38849194 C13.4150645,5.06216935 13.414879,6.15819355 14.0885565,6.83168548 L15.4008548,8.14398387 C15.4021532,8.14546774 15.4030806,8.14695161 15.404379,8.14825 C16.4963226,9.24037903 15.7931532,11.7887419 13.8683871,13.7133226 C11.9439919,15.6379032 9.39544355,16.3412581 8.3035,15.249129 C8.30201613,15.2478306 8.30053226,15.2470887 8.29923387,15.2457903 L6.98508065,13.9314516 C6.31251613,13.2590726 5.21816129,13.2590726 4.54559677,13.9316371 L1.25770968,17.2195242 C0.584032258,17.8930161 0.584032258,18.9888548 1.25770968,19.6625323 L2.57390323,20.9787258 C4.90339516,23.3082177 10.804379,21.056629 16.008129,15.852879 L16.008129,15.852879 Z M14.6132903,4.91322581 L17.9011774,1.62533871 C18.2843871,1.24194355 18.9079839,1.24194355 19.2911935,1.62533871 L20.3469677,2.6811129 L15.6670242,7.36087097 L14.6131048,6.3071371 C14.2289677,5.92281452 14.2289677,5.29754839 14.6132903,4.91322581 L14.6132903,4.91322581 Z M14.393121,14.237871 C16.5358306,12.0953468 17.262371,9.40712903 16.1707984,7.90637903 L20.8477742,3.22940323 C22.3615081,5.41681452 20.0168065,10.7951048 15.4835806,15.3283306 C10.9503548,19.8615565 5.57206452,22.2062581 3.38465323,20.6925242 L8.06162903,16.0155484 C9.56237903,17.1073065 12.2504113,16.3805806 14.393121,14.237871 L14.393121,14.237871 Z M1.78244355,17.7440726 L5.07014516,14.4561855 C5.45354032,14.0729758 6.0771371,14.0727903 6.46034677,14.456 L7.51612097,15.5119597 L2.83617742,20.1917177 L1.78244355,19.1379839 C1.39812097,18.7536613 1.39812097,18.1283952 1.78244355,17.7440726 L1.78244355,17.7440726 Z" id="Fill-4" sketch:type="MSShapeGroup"></path>
            </g>
        </g>
    </g>
</svg>