<?xml version="1.0" encoding="UTF-8" standalone="no"?>
<svg width="17px" height="27px" viewBox="0 0 17 27" version="1.1" xmlns="http://www.w3.org/2000/svg" xmlns:xlink="http://www.w3.org/1999/xlink" xmlns:sketch="http://www.bohemiancoding.com/sketch/ns">
    <!-- Generator: Sketch 3.3.3 (12081) - http://www.bohemiancoding.com/sketch -->
    <title>Roskis ikoni</title>
    <desc>Created with Sketch.</desc>
    <defs></defs>
    <g id="Welcome" stroke="none" stroke-width="1" fill="none" fill-rule="evenodd" sketch:type="MSPage">
        <g id="IKONIT-&amp;-Napit" sketch:type="MSArtboardGroup" transform="translate(-994.000000, -2087.000000)" fill="#FFFFFF">
            <g id="Roskis-ikoni" sketch:type="MSLayerGroup" transform="translate(994.000000, 2087.580000)">
                <path d="M14.505991,25.6650075 L2.36999455,25.6650075 C2.06760989,25.6650075 1.81518443,25.4342018 1.78801364,25.1326936 L0.105761591,6.37491136 C0.0914457955,6.21159443 0.146079545,6.04944614 0.256807841,5.92849227 C0.367536136,5.80753841 0.52384125,5.73858886 0.688034659,5.73858886 L16.1885352,5.73858886 C16.3527286,5.73858886 16.5090338,5.80753841 16.619762,5.92849227 C16.7304903,6.04944614 16.7851241,6.21159443 16.7705161,6.37491136 L15.0882641,25.1326936 C15.0610933,25.4342018 14.8086678,25.6650075 14.505991,25.6650075 L14.505991,25.6650075 Z M2.90435352,24.4963711 L13.971632,24.4963711 L15.5495833,6.90722523 L1.32698659,6.90722523 L2.90435352,24.4963711 L2.90435352,24.4963711 Z" id="Fill-1" sketch:type="MSShapeGroup"></path>
                <path d="M16.1885352,4.56060341 L0.688034659,4.56060341 C0.365198864,4.56060341 0.103716477,4.29912102 0.103716477,3.97628523 C0.103716477,3.65374159 0.365198864,3.39196705 0.688034659,3.39196705 L16.1885352,3.39196705 C16.511371,3.39196705 16.7728534,3.65374159 16.7728534,3.97628523 C16.7728534,4.29912102 16.511371,4.56060341 16.1885352,4.56060341" id="Fill-2" sketch:type="MSShapeGroup"></path>
                <path d="M5.6626275,21.4996953 C5.34008386,21.4996953 5.07830932,21.2379208 5.07830932,20.9153772 L5.07830932,9.84751432 C5.07830932,9.52497068 5.34008386,9.26319614 5.6626275,9.26319614 C5.98517114,9.26319614 6.24694568,9.52497068 6.24694568,9.84751432 L6.24694568,20.9153772 C6.24694568,21.2379208 5.98517114,21.4996953 5.6626275,21.4996953" id="Fill-3" sketch:type="MSShapeGroup"></path>
                <path d="M11.2136502,21.4996953 C10.8908144,21.4996953 10.629332,21.2379208 10.629332,20.9153772 L10.629332,9.84751432 C10.629332,9.52497068 10.8908144,9.26319614 11.2136502,9.26319614 C11.5361939,9.26319614 11.7979684,9.52497068 11.7979684,9.84751432 L11.7979684,20.9153772 C11.7979684,21.2379208 11.5361939,21.4996953 11.2136502,21.4996953" id="Fill-4" sketch:type="MSShapeGroup"></path>
                <path d="M11.2083914,4.09694693 C10.8858477,4.09694693 10.6240732,3.83546455 10.6240732,3.51262875 C10.6240732,2.30513523 9.64154216,1.32231205 8.43375648,1.32231205 C7.2259708,1.32231205 6.24343977,2.30513523 6.24343977,3.51262875 C6.24343977,3.83546455 5.98195739,4.09694693 5.65912159,4.09694693 C5.33657795,4.09694693 5.07480341,3.83546455 5.07480341,3.51262875 C5.07480341,1.66063227 6.58146784,0.153675682 8.43375648,0.153675682 C10.2860451,0.153675682 11.7927095,1.66063227 11.7927095,3.51262875 C11.7927095,3.83546455 11.5312272,4.09694693 11.2083914,4.09694693" id="Fill-5" sketch:type="MSShapeGroup"></path>
            </g>
        </g>
    </g>
</svg>