<?xml version="1.0" encoding="UTF-8" standalone="no"?>
<svg width="23px" height="26px" viewBox="0 0 23 26" version="1.1" xmlns="http://www.w3.org/2000/svg" xmlns:xlink="http://www.w3.org/1999/xlink" xmlns:sketch="http://www.bohemiancoding.com/sketch/ns">
    <!-- Generator: Sketch 3.3.3 (12081) - http://www.bohemiancoding.com/sketch -->
    <title>tapahtuma ikoni</title>
    <desc>Created with Sketch.</desc>
    <defs></defs>
    <g id="Welcome" stroke="none" stroke-width="1" fill="none" fill-rule="evenodd" sketch:type="MSPage">
        <g id="IKONIT-&amp;-Napit" sketch:type="MSArtboardGroup" transform="translate(-622.000000, -2086.000000)" fill="#484639">
            <g id="TAPAHTUMA-+-tapahtuma-ikoni" sketch:type="MSLayerGroup" transform="translate(620.000000, 2086.000000)">
                <g id="tapahtuma-ikoni" transform="translate(2.000000, 0.290000)" sketch:type="MSShapeGroup">
                    <path d="M10.7805389,0.123353293 L14.8321856,1.92694611 L10.7805389,3.73053892 L10.7805389,0.123353293" id="Fill-1"></path>
                    <path d="M21.6169162,24.9958084 L18.1344311,24.9958084 C16.1401198,24.9958084 14.2242515,21.9071856 12.9565868,19.5838323 C12.6023952,18.9347305 12.2729042,18.2887725 11.9781437,17.6853293 L11.9781437,24.2473054 C11.9781437,24.6606287 11.6429641,24.9958084 11.2296407,24.9958084 L0.84251497,24.9958084 C0.429041916,24.9958084 0.094011976,24.6606287 0.094011976,24.2473054 L0.094011976,12.7356287 C0.094011976,12.480988 0.223502994,12.2437126 0.437874251,12.105988 L10.825,5.42964072 C11.0714072,5.27110778 11.3877246,5.27110778 11.6342814,5.42964072 L22.0215569,12.105988 C22.2357784,12.2437126 22.3652695,12.480988 22.3652695,12.7356287 L22.3652695,24.2473054 C22.3652695,24.6606287 22.0302395,24.9958084 21.6169162,24.9958084 L21.6169162,24.9958084 Z M11.2299401,13.4549401 C11.5300898,13.4549401 11.8076347,13.6360778 11.9236527,13.9230539 C11.9336826,13.9479042 12.9414671,16.4327844 14.2763473,18.8772455 C14.6977545,19.6489521 16.8642216,23.4988024 18.1344311,23.4988024 L20.8682635,23.4988024 L20.8682635,13.1444611 L11.2296407,6.9489521 L1.59101796,13.1443114 L1.59101796,23.4988024 L10.4811377,23.4988024 L10.4811377,14.2034431 C10.4811377,13.8450599 10.7350299,13.5371257 11.0868263,13.4687126 C11.1347305,13.4594311 11.1826347,13.4549401 11.2299401,13.4549401 L11.2299401,13.4549401 Z" id="Fill-2"></path>
                    <path d="M10.7805389,1.22170659 L11.6787425,1.22170659 L11.6787425,6.50838323 L10.7805389,6.50838323 L10.7805389,1.22170659 Z" id="Fill-3"></path>
                </g>
            </g>
        </g>
    </g>
</svg>