<?xml version="1.0" encoding="UTF-8" standalone="no"?>
<svg width="51px" height="50px" viewBox="0 0 51 50" version="1.1" xmlns="http://www.w3.org/2000/svg" xmlns:xlink="http://www.w3.org/1999/xlink" xmlns:sketch="http://www.bohemiancoding.com/sketch/ns">
    <!-- Generator: Sketch 3.3.3 (12081) - http://www.bohemiancoding.com/sketch -->
    <title>github button active</title>
    <desc>Created with Sketch.</desc>
    <defs></defs>
    <g id="Welcome" stroke="none" stroke-width="1" fill="none" fill-rule="evenodd" sketch:type="MSPage">
        <g id="KOODIKOULU-JÄRJESTÄ,-kiitos-palautteestasi" sketch:type="MSArtboardGroup" transform="translate(-775.000000, -2073.000000)">
            <g id="Group" sketch:type="MSLayerGroup" transform="translate(615.000000, 2073.000000)">
                <g id="github-button-active" transform="translate(160.000000, 0.000000)" sketch:type="MSShapeGroup">
                    <circle id="Oval-86-Copy-4" fill="#FFFFFF" cx="25.3846154" cy="25" r="25"></circle>
                    <g id="Imported-Layers-Copy-6" transform="translate(12.384615, 12.000000)" fill="#FFB440">
                        <path d="M15.8926462,19.0397826 C16.4543563,18.9290582 16.9706053,18.8505935 17.4746755,18.7235068 C18.9918136,18.3410382 20.2633312,17.5935788 20.9657013,16.1316635 C21.6769963,14.6512477 21.8370865,13.0862314 21.4848323,11.4808671 C21.3292046,10.7713385 20.9778801,10.1482698 20.5075571,9.59622827 C20.4017599,9.47202358 20.358623,9.3698522 20.4126372,9.19711843 C20.7220333,8.20822223 20.6286938,7.23215556 20.2938246,6.26482784 C20.2326519,6.08791053 20.1350359,6.03343152 19.9611866,6.03715023 C19.3540153,6.05044459 18.7909106,6.23545008 18.2554173,6.49678196 C17.8044316,6.71683624 17.3790119,6.98904533 16.9318378,7.21774558 C16.8041004,7.28300883 16.6276479,7.32828404 16.4944253,7.29611726 C14.5191431,6.81826387 12.5482303,6.82012322 10.5734128,7.29853441 C10.4479996,7.32893481 10.2744291,7.29648913 10.1632398,7.22825092 C9.3279261,6.71581359 8.4809914,6.2371235 7.49646468,6.07043262 C6.90407523,5.9701206 6.84690016,6.00014913 6.68643811,6.55981399 C6.431521,7.4494208 6.38949965,8.34088697 6.66505557,9.23746636 C6.69127243,9.3228106 6.6712844,9.46235495 6.61531791,9.52715335 C5.47758061,10.8428306 5.26784574,12.3887886 5.49989283,14.036825 C5.56552795,14.5025926 5.66491029,14.9704054 5.81105534,15.4168358 C6.41255561,17.2542471 7.76458319,18.2608072 9.57596361,18.7248084 C10.0889587,18.8561716 10.6145975,18.938076 11.1655234,19.0488934 C10.7503301,19.4933714 10.5309266,20.0130602 10.4199233,20.5863913 C10.406443,20.656117 10.3243527,20.7401597 10.254534,20.7672132 C8.93569586,21.2789998 7.6070961,21.1172362 6.75504819,19.7350871 C6.34329476,19.067115 5.80566322,18.5582105 5.01134817,18.4009093 C4.8116538,18.3613051 4.5890894,18.3766448 4.38837239,18.4194099 C4.15734794,18.4686827 4.12369367,18.6129684 4.28052999,18.7945341 C4.37154526,18.8999593 4.47873688,19.0003643 4.59764242,19.0712056 C5.27751437,19.4765443 5.71418311,20.0854819 6.0033123,20.7973347 C6.48637187,21.9864831 7.41800004,22.5133304 8.63234263,22.5904935 C9.19767851,22.626472 9.77007993,22.5507964 10.3703716,22.5243006 C10.3703716,23.3001151 10.3888722,24.1045636 10.3628412,24.9076176 C10.349082,25.3325724 9.92347644,25.5387745 9.44553009,25.3829609 C8.36766391,25.0315434 7.34929699,24.5467174 6.42343282,23.8952006 C2.58071067,21.1911454 0.636572542,17.481181 0.852443273,12.7838078 C1.12084069,6.94535056 5.36955228,2.18987267 11.1383768,1.07110076 C17.7147178,-0.20422857 24.1519793,3.83725827 25.8590501,10.3131943 C27.5231699,16.6261581 23.8865569,23.3279124 17.6890588,25.3692946 C17.0708244,25.5728936 16.7012782,25.3117477 16.7020219,24.6659019 C16.7030446,23.638703 16.7035094,22.6113183 16.7130851,21.5842124 C16.7216381,20.6562099 16.587114,19.7760858 15.8926462,19.0397826" id="Fill-1"></path>
                        <path id="Fill-2" d="M9.0482796,21.169484 C9.16792888,21.284206 9.24462714,21.3577433 9.32123243,21.4311877 C9.22975233,21.4927323 9.14134015,21.5957404 9.04567651,21.6028989 C8.9673978,21.6087558 8.88056608,21.5003556 8.79754603,21.4426227 C8.86829436,21.3655526 8.93904269,21.2885755 9.0482796,21.169484"></path>
                        <path id="Fill-3" d="M7.19766686,21.0767023 C7.0736481,20.9050842 6.98830386,20.8003097 6.92573668,20.6831705 C6.91811333,20.6689465 7.06974347,20.5374903 7.08480421,20.5481816 C7.1883701,20.6221838 7.2858931,20.7119905 7.35924452,20.8151845 C7.37551385,20.8381475 7.28765948,20.9349268 7.19766686,21.0767023"></path>
                        <path id="Fill-4" d="M8.03288764,21.5224819 C7.9269046,21.4059005 7.84816105,21.3193477 7.76941751,21.2327949 C7.84249003,21.1830572 7.93843258,21.0763305 7.98389372,21.0946451 C8.09545483,21.1397344 8.18368106,21.2424635 8.28129703,21.3219508 C8.21240805,21.3775454 8.14351907,21.4331401 8.03288764,21.5224819"></path>
                        <path id="Fill-5" d="M10.0358743,21.0484402 C10.1493877,21.1539584 10.2207868,21.2203373 10.2921859,21.2867161 C10.1946629,21.3571855 10.1050421,21.4577765 9.996456,21.4861316 C9.93612004,21.5019361 9.84436103,21.3973475 9.76664013,21.3469591 C9.844454,21.2606852 9.92226787,21.1744113 10.0358743,21.0484402"></path>
                        <path id="Fill-6" d="M6.7759659,20.0711649 C6.6784429,20.1567881 6.59467911,20.2470596 6.58250035,20.2383207 C6.48767342,20.1698965 6.39647222,20.0895725 6.33000039,19.9947456 C6.31661306,19.9757802 6.41329935,19.8795587 6.45913237,19.8188509 C6.55089138,19.8919234 6.64265038,19.964996 6.7759659,20.0711649"></path>
                        <path id="Fill-7" d="M6.0635553,19.6010279 C5.9623136,19.4819364 5.88431379,19.4130474 5.84080496,19.3266805 C5.82602312,19.2973028 5.89779409,19.2241373 5.93005384,19.1710528 C6.01391061,19.2440323 6.10464697,19.3113409 6.1756742,19.3951976 C6.18906154,19.4110021 6.12389126,19.4932784 6.0635553,19.6010279"></path>
                    </g>
                </g>
            </g>
        </g>
    </g>
</svg>