<?xml version="1.0" encoding="UTF-8" standalone="no"?>
<svg width="51px" height="50px" viewBox="0 0 51 50" version="1.1" xmlns="http://www.w3.org/2000/svg" xmlns:xlink="http://www.w3.org/1999/xlink" xmlns:sketch="http://www.bohemiancoding.com/sketch/ns">
    <!-- Generator: Sketch 3.3.3 (12081) - http://www.bohemiancoding.com/sketch -->
    <title>mail button</title>
    <desc>Created with Sketch.</desc>
    <defs></defs>
    <g id="Welcome" stroke="none" stroke-width="1" fill="none" fill-rule="evenodd" sketch:type="MSPage">
        <g id="KOODIKOULU-JÄRJESTÄ,-kiitos-palautteestasi" sketch:type="MSArtboardGroup" transform="translate(-615.000000, -2073.000000)">
            <g id="Oval-86-Copy-6-+-Imported-Layers-Copy-9-+-Oval-86-Copy-7-+-Imported-Layers-Copy-10-+-Oval-86-Copy-8-+-Imported-Layers-Copy-11" sketch:type="MSLayerGroup" transform="translate(615.000000, 2073.000000)">
                <g id="mail-button" sketch:type="MSShapeGroup">
                    <circle id="Oval-86-Copy-8" fill="#FFB440" cx="25.4882457" cy="25" r="25"></circle>
                    <path d="M37.6731346,17 L13.2289864,17 C12.8198012,17 12.4882457,17.3315556 12.4882457,17.7407407 L12.4882457,31.733037 C12.4882457,32.1422222 12.8198012,32.4737778 13.2289864,32.4737778 L37.6731346,32.4737778 C38.0823198,32.4737778 38.4138753,32.1422222 38.4138753,31.733037 L38.4138753,17.7407407 C38.4138753,17.3315556 38.0823198,17 37.6731346,17 L37.6731346,17 Z M25.4657272,25.6631111 L15.5199494,18.4814815 L35.4337272,18.4814815 L25.4657272,25.6631111 L25.4657272,25.6631111 Z M21.5771346,24.6826667 L13.9697272,30.173037 L13.9697272,19.1893333 L21.5771346,24.6826667 L21.5771346,24.6826667 Z M22.8426161,25.5964444 L25.0313568,27.1768889 C25.1608383,27.2705185 25.3128383,27.317037 25.4648383,27.317037 C25.6168383,27.317037 25.7688383,27.2705185 25.8980235,27.1774815 L28.1169864,25.5786667 L35.5963938,30.9922963 L15.3661716,30.9922963 L22.8426161,25.5964444 L22.8426161,25.5964444 Z M29.3833568,24.6663704 L36.9323938,19.2275556 L36.9323938,30.1303704 L29.3833568,24.6663704 L29.3833568,24.6663704 Z" id="Imported-Layers-Copy-11" fill="#FFFFFF"></path>
                </g>
            </g>
        </g>
    </g>
</svg>