<?xml version="1.0" encoding="UTF-8" standalone="no"?>
<svg width="50px" height="50px" viewBox="0 0 50 50" version="1.1" xmlns="http://www.w3.org/2000/svg" xmlns:xlink="http://www.w3.org/1999/xlink" xmlns:sketch="http://www.bohemiancoding.com/sketch/ns">
    <!-- Generator: Sketch 3.3.3 (12081) - http://www.bohemiancoding.com/sketch -->
    <title>twitter button active</title>
    <desc>Created with Sketch.</desc>
    <defs></defs>
    <g id="Welcome" stroke="none" stroke-width="1" fill="none" fill-rule="evenodd" sketch:type="MSPage">
        <g id="KOODIKOULU-JÄRJESTÄ,-kiitos-palautteestasi" sketch:type="MSArtboardGroup" transform="translate(-695.000000, -2073.000000)">
            <g id="Group" sketch:type="MSLayerGroup" transform="translate(615.000000, 2073.000000)">
                <g id="twitter-button-active" transform="translate(80.000000, 0.000000)" sketch:type="MSShapeGroup">
                    <circle id="Oval-86-Copy-3" fill="#FFFFFF" cx="25" cy="25" r="25"></circle>
                    <path d="M13.3846154,32.6849773 C15.9655349,32.9959351 18.3909755,32.2963183 20.6608606,30.5861267 C19.6036192,30.6172378 18.6708223,30.30628 17.8623165,29.6532532 C17.0538874,29.000303 16.4475273,28.1606861 16.0432361,27.1345558 C16.3231594,27.1967781 16.6651518,27.2123336 17.0693663,27.1812225 C17.5980253,27.1501114 17.9866844,27.1034447 18.2354966,27.0412991 C16.6495962,26.5126401 15.5457648,25.6575443 14.9238491,24.4759351 C14.5507457,23.667506 14.3641556,22.8434447 14.3641556,22.0039045 C15.2659181,22.4703413 15.996646,22.6879658 16.5563395,22.6568547 C15.2814736,21.5685788 14.5662246,20.4025252 14.4107457,19.1586938 C14.3174889,18.1636746 14.5196345,17.0908777 15.0171058,15.9403796 C16.8206307,17.9304179 18.7174123,19.3608394 20.7075273,20.2314907 C22.2000943,20.8534064 23.6771058,21.1642876 25.1385617,21.1642876 C24.9519717,19.6717972 25.1541173,18.4124102 25.7449219,17.38628 C26.4600943,16.266893 27.4862246,15.5206095 28.8233127,15.1474294 C29.693964,14.9298049 30.5335043,14.9530999 31.34201,15.2173911 C32.1504391,15.4816823 32.8345771,15.924824 33.3942706,16.5467397 C34.3581786,16.4534064 35.41542,16.0647474 36.5659181,15.3806095 C36.0995579,16.7488087 35.3688299,17.6816823 34.3737342,18.1791535 C35.3688299,18.0237512 36.332738,17.7438279 37.2656116,17.3396133 C37.1101326,17.6505712 36.8147303,18.0703413 36.3794047,18.5990003 C35.944079,19.1275827 35.3998644,19.5784639 34.7469142,19.9515673 C34.7780253,20.1070463 34.7935043,20.2469696 34.7935043,20.3714141 C34.8557265,22.1127168 34.5136575,23.9628317 33.767374,25.9218355 C32.4925081,29.1245942 30.5646154,31.5344792 27.9837725,33.1514141 C25.433964,34.5817589 22.3866077,35.1259735 18.8417801,34.7839045 C16.6030062,34.5351689 14.7839257,33.8354754 13.3846154,32.6849773" id="Imported-Layers-Copy-5" fill="#FFB440"></path>
                </g>
            </g>
        </g>
    </g>
</svg>